<svg xmlns="http://www.w3.org/2000/svg" fill="none" class="cardItemLayout" viewBox="0 0 360 96">
  <!-- Переместить defs в начало -->
  <defs>
    <linearGradient id="border-gradient" gradientUnits="userSpaceOnUse"
                    x1="0" y1="0" x2="100%" y2="100%">
      <stop offset="0%" stop-color="#84F729"/>
      <stop offset="100%" stop-color="#15BFFD"/>
    </linearGradient>
  </defs>
  
  <path fill="#fff" fill-opacity=".05" d="M360 10c0-5.5229-4.477-10-10-10H10C4.4771 0 0 4.4771 0 10v76c0 5.5229 4.4771 10 10 10h300.149c2.219 0 4.374-.7378 6.128-2.0973l39.851-30.9001A10.002 10.002 0 0 0 360 55.0999V10Z"/>
  
  <!-- Увеличить stroke-width и использовать новый id -->
  <path stroke="url(#border-gradient)" stroke-width="1" stroke-opacity=".7"
        d="M350 .5c5.247 0 9.5 4.2533 9.5 9.5v45.0999a9.4995 9.4995 0 0 1-3.679 7.5076l-39.851 30.9a9.4969 9.4969 0 0 1-5.821 1.9925H10C4.7533 95.5.5 91.2467.5 86V10C.5 4.7533 4.7533.5 10 .5h340Z"/>
</svg>